<svg version="1.2" xmlns="http://www.w3.org/2000/svg" viewBox="0 0 1005 600" width="720" height="430">
	<title>Figurativo 3-svg</title>
	<style>
		tspan { white-space:pre } 
		.s0 { fill: #ffffff } 
		.s1 { fill: #b8e986 } 
		.s2 { fill: #ddc4f2 } 
		.s3 { fill: none;stroke: #000000 } 
		.t4 { font-size: 10px;fill: #000000;font-family: "sans" } 
		.t5 { font-size: 12px;fill: #7b7b7b;font-family: "Arial" } 
		.s6 { fill: none;stroke: #cccccc } 
		.t7 { font-size: 10px;fill: #000000;font-family: "Arial" } 
		.t8 { font-size: 12px;fill: #000000;font-family: "Arial" } 
	</style>
	<path id="backgorund" class="s0" d="m0 0h1005v600h-1005z"/>
	<g id="viz">
		<g id="Layer">
			<g id="Layer">
				<g id="Layer">
					<path id="undefined - Muertos " class="s1" d="m55 484h19.7v96h-19.7z"/>
					<path id="undefined - Sobrevivientes" class="s2" d="m75.6 68h19.7v512h-19.7z"/>
					<path id="undefined - Muertos " class="s1" d="m101.3 420h19.7v160h-19.7z"/>
					<path id="undefined - Sobrevivientes" class="s2" d="m121.9 132h19.8v448h-19.8z"/>
					<path id="undefined - Muertos " class="s1" d="m147.6 404h19.7v176h-19.7z"/>
					<path id="undefined - Sobrevivientes" class="s2" d="m168.3 148h19.7v432h-19.7z"/>
					<path id="undefined - Muertos " class="s1" d="m193.9 324h19.7v256h-19.7z"/>
					<path id="undefined - Sobrevivientes" class="s2" d="m214.6 148h19.7v432h-19.7z"/>
					<path id="undefined - Muertos " class="s1" d="m240.2 196h19.7v384h-19.7z"/>
					<path id="undefined - Sobrevivientes" class="s2" d="m260.9 276h19.7v304h-19.7z"/>
					<path id="undefined - Muertos " class="s1" d="m286.5 180h19.7v400h-19.7z"/>
					<path id="undefined - Sobrevivientes" class="s2" d="m307.2 292h19.7v288h-19.7z"/>
					<path id="undefined - Muertos " class="s1" d="m332.8 164h19.7v416h-19.7z"/>
					<path id="undefined - Sobrevivientes" class="s2" d="m353.5 308h19.7v272h-19.7z"/>
					<path id="undefined - Muertos " class="s1" d="m379.2 148h19.7v432h-19.7z"/>
					<path id="undefined - Sobrevivientes" class="s2" d="m399.8 324h19.7v256h-19.7z"/>
					<path id="undefined - Muertos " class="s1" d="m425.5 148h19.7v432h-19.7z"/>
					<path id="undefined - Sobrevivientes" class="s2" d="m446.1 324h19.7v256h-19.7z"/>
					<path id="undefined - Muertos " class="s1" d="m471.8 132h19.7v448h-19.7z"/>
					<path id="undefined - Sobrevivientes" class="s2" d="m492.5 324h19.7v256h-19.7z"/>
					<path id="undefined - Muertos " class="s1" d="m518.1 116h19.7v464h-19.7z"/>
					<path id="undefined - Sobrevivientes" class="s2" d="m538.8 324h19.7v256h-19.7z"/>
					<path id="undefined - Muertos " class="s1" d="m564.4 116h19.7v464h-19.7z"/>
					<path id="undefined - Sobrevivientes" class="s2" d="m585.1 324h19.7v256h-19.7z"/>
					<path id="undefined - Muertos " class="s1" d="m610.7 116h19.7v464h-19.7z"/>
					<path id="undefined - Sobrevivientes" class="s2" d="m631.4 324h19.7v256h-19.7z"/>
					<path id="undefined - Muertos " class="s1" d="m657 116h19.7v464h-19.7z"/>
					<path id="undefined - Sobrevivientes" class="s2" d="m677.7 324h19.7v256h-19.7z"/>
					<path id="undefined - Muertos " class="s1" d="m703.3 116h19.8v464h-19.8z"/>
					<path id="undefined - Sobrevivientes" class="s2" d="m724 324h19.7v256h-19.7z"/>
					<path id="undefined - Muertos " class="s1" d="m749.7 116h19.7v464h-19.7z"/>
					<path id="undefined - Sobrevivientes" class="s2" d="m770.3 324h19.7v256h-19.7z"/>
				</g>
				<g id="xAxis">
					<path id="Layer" class="s3" d="m50.5 580.5h745"/>
					<g id="Layer">
						<path id="Layer" class="s3" d="m75.1 580v6"/>
						<text id="1" style="transform: matrix(1,0,0,1,75.146,596.1)" >
							<tspan x="-3.2" y="0" class="t4">1
</tspan>
						</text>
					</g>
					<g id="Layer">
						<path id="Layer" class="s3" d="m121.5 580v6"/>
						<text id="2" style="transform: matrix(1,0,0,1,121.46,596.1)" >
							<tspan x="-3.2" y="0" class="t4">2
</tspan>
						</text>
					</g>
					<g id="Layer">
						<path id="Layer" class="s3" d="m167.8 580v6"/>
						<text id="9" style="transform: matrix(1,0,0,1,167.774,596.1)" >
							<tspan x="-3.2" y="0" class="t4">9
</tspan>
						</text>
					</g>
					<g id="Layer">
						<path id="Layer" class="s3" d="m214.1 580v6"/>
						<text id="12" style="transform: matrix(1,0,0,1,214.088,596.1)" >
							<tspan x="-6.4" y="0" class="t4">12
</tspan>
						</text>
					</g>
					<g id="Layer">
						<path id="Layer" class="s3" d="m260.4 580v6"/>
						<text id="17" style="transform: matrix(1,0,0,1,260.402,596.1)" >
							<tspan x="-6.4" y="0" class="t4">17
</tspan>
						</text>
					</g>
					<g id="Layer">
						<path id="Layer" class="s3" d="m306.7 580v6"/>
						<text id="34" style="transform: matrix(1,0,0,1,306.715,596.1)" >
							<tspan x="-6.4" y="0" class="t4">34
</tspan>
						</text>
					</g>
					<g id="Layer">
						<path id="Layer" class="s3" d="m353 580v6"/>
						<text id="37" style="transform: matrix(1,0,0,1,353.029,596.1)" >
							<tspan x="-6.4" y="0" class="t4">37
</tspan>
						</text>
					</g>
					<g id="Layer">
						<path id="Layer" class="s3" d="m399.3 580v6"/>
						<text id="60" style="transform: matrix(1,0,0,1,399.343,596.1)" >
							<tspan x="-6.4" y="0" class="t4">60
</tspan>
						</text>
					</g>
					<g id="Layer">
						<path id="Layer" class="s3" d="m445.7 580v6"/>
						<text id="61" style="transform: matrix(1,0,0,1,445.657,596.1)" >
							<tspan x="-6.4" y="0" class="t4">61
</tspan>
						</text>
					</g>
					<g id="Layer">
						<path id="Layer" class="s3" d="m492 580v6"/>
						<text id="62" style="transform: matrix(1,0,0,1,491.971,596.1)" >
							<tspan x="-6.4" y="0" class="t4">62
</tspan>
						</text>
					</g>
					<g id="Layer">
						<path id="Layer" class="s3" d="m538.3 580v6"/>
						<text id="63" style="transform: matrix(1,0,0,1,538.285,596.1)" >
							<tspan x="-6.4" y="0" class="t4">63
</tspan>
						</text>
					</g>
					<g id="Layer">
						<path id="Layer" class="s3" d="m584.6 580v6"/>
						<text id="64" style="transform: matrix(1,0,0,1,584.598,596.1)" >
							<tspan x="-6.4" y="0" class="t4">64
</tspan>
						</text>
					</g>
					<g id="Layer">
						<path id="Layer" class="s3" d="m630.9 580v6"/>
						<text id="69" style="transform: matrix(1,0,0,1,630.912,596.1)" >
							<tspan x="-6.4" y="0" class="t4">69
</tspan>
						</text>
					</g>
					<g id="Layer">
						<path id="Layer" class="s3" d="m677.2 580v6"/>
						<text id="70" style="transform: matrix(1,0,0,1,677.226,596.1)" >
							<tspan x="-6.4" y="0" class="t4">70
</tspan>
						</text>
					</g>
					<g id="Layer">
						<path id="Layer" class="s3" d="m723.5 580v6"/>
						<text id="71" style="transform: matrix(1,0,0,1,723.54,596.1)" >
							<tspan x="-6.4" y="0" class="t4">71
</tspan>
						</text>
					</g>
					<g id="Layer">
						<path id="Layer" class="s3" d="m769.9 580v6"/>
						<text id="72" style="transform: matrix(1,0,0,1,769.854,596.1)" >
							<tspan x="-6.4" y="0" class="t4">72
</tspan>
						</text>
					</g>
				</g>
				<g id="yAxis">
					<path id="Layer" class="s3" d="m50.5 580.5v-560"/>
					<g id="Layer">
						<path id="Layer" class="s3" d="m50 580.5h-6"/>
						<text id="0" style="transform: matrix(1,0,0,1,41,583.7)" >
							<tspan x="-6.4" y="0" class="t4">0
</tspan>
						</text>
					</g>
					<g id="Layer">
						<path id="Layer" class="s3" d="m50 500.5h-6"/>
						<text id="5" style="transform: matrix(1,0,0,1,41,503.7)" >
							<tspan x="-6.4" y="0" class="t4">5
</tspan>
						</text>
					</g>
					<g id="Layer">
						<path id="Layer" class="s3" d="m50 420.5h-6"/>
						<text id="10" style="transform: matrix(1,0,0,1,41,423.7)" >
							<tspan x="-12.7" y="0" class="t4">10
</tspan>
						</text>
					</g>
					<g id="Layer">
						<path id="Layer" class="s3" d="m50 340.5h-6"/>
						<text id="15" style="transform: matrix(1,0,0,1,41,343.7)" >
							<tspan x="-12.7" y="0" class="t4">15
</tspan>
						</text>
					</g>
					<g id="Layer">
						<path id="Layer" class="s3" d="m50 260.5h-6"/>
						<text id="20" style="transform: matrix(1,0,0,1,41,263.7)" >
							<tspan x="-12.7" y="0" class="t4">20
</tspan>
						</text>
					</g>
					<g id="Layer">
						<path id="Layer" class="s3" d="m50 180.5h-6"/>
						<text id="25" style="transform: matrix(1,0,0,1,41,183.7)" >
							<tspan x="-12.7" y="0" class="t4">25
</tspan>
						</text>
					</g>
					<g id="Layer">
						<path id="Layer" class="s3" d="m50 100.5h-6"/>
						<text id="30" style="transform: matrix(1,0,0,1,41,103.7)" >
							<tspan x="-12.7" y="0" class="t4">30
</tspan>
						</text>
					</g>
					<g id="Layer">
						<path id="Layer" class="s3" d="m50 20.5h-6"/>
						<text id="35" style="transform: matrix(1,0,0,1,41,23.7)" >
							<tspan x="-12.7" y="0" class="t4">35
</tspan>
						</text>
					</g>
				</g>
				<text id="Sets" style="transform: matrix(1,0,0,1,795,576)" >
					<tspan x="-26" y="0" class="t5">Sets
</tspan>
				</text>
				<text id="Value" style="transform: matrix(1,0,0,1,54,32)" >
					<tspan x="0" y="0" class="t5">Value
</tspan>
				</text>
			</g>
		</g>
		<g id="grid">
			<path id="Layer" class="s6" d="m0 0h805v600h-805z"/>
		</g>
	</g>
	<g id="legend">
		<g id="Layer">
			<g id="Layer">
				<g id="Layer">
					<g id="Layer">
						<path id="Layer" class="s1" d="m810 36h15v15h-15z"/>
						<text id="Muertos" style="transform: matrix(1,0,0,1,830,48.5)" >
							<tspan x="0" y="0" class="t7">Muertos
</tspan>
						</text>
					</g>
					<g id="Layer">
						<path id="Layer" class="s2" d="m810 57h15v15h-15z"/>
						<text id="Sobrevivientes" style="transform: matrix(1,0,0,1,830,69.5)" >
							<tspan x="0" y="0" class="t7">Sobrevivientes
</tspan>
						</text>
					</g>
				</g>
				<text id="Colors" style="transform: matrix(1,0,0,1,810,20)" >
					<tspan x="0" y="0" class="t8">Colors
</tspan>
				</text>
			</g>
		</g>
	</g>
</svg>